<svg width="24" height="24" viewBox="0 0 24 24" fill="none" xmlns="http://www.w3.org/2000/svg">
<g id="icon / jam-icons / outline &#38; logos / document">
<path id="Vector" d="M7 2.75H7.75H17C17.5967 2.75 18.169 2.98705 18.591 3.40901C19.0129 3.83097 19.25 4.40326 19.25 5V19C19.25 19.5967 19.0129 20.169 18.591 20.591C18.169 21.0129 17.5967 21.25 17 21.25H7C6.40326 21.25 5.83097 21.0129 5.40901 20.591C4.98705 20.169 4.75 19.5967 4.75 19V5C4.75 4.40326 4.98705 3.83097 5.40901 3.40901C5.83097 2.98705 6.40326 2.75 7 2.75ZM7 3.25C6.53587 3.25 6.09075 3.43437 5.76256 3.76256C5.43437 4.09075 5.25 4.53587 5.25 5V19C5.25 19.4641 5.43437 19.9092 5.76256 20.2374C6.09075 20.5656 6.53587 20.75 7 20.75H17C17.4641 20.75 17.9092 20.5656 18.2374 20.2374C18.5656 19.9092 18.75 19.4641 18.75 19V5C18.75 4.53587 18.5656 4.09075 18.2374 3.76256C17.9092 3.43437 17.4641 3.25 17 3.25H7ZM9 5.75H15C15.0663 5.75 15.1299 5.77634 15.1768 5.82322C15.2237 5.87011 15.25 5.9337 15.25 6C15.25 6.0663 15.2237 6.12989 15.1768 6.17678C15.1299 6.22366 15.0663 6.25 15 6.25H9C8.9337 6.25 8.87011 6.22366 8.82322 6.17678C8.77634 6.12989 8.75 6.0663 8.75 6C8.75 5.9337 8.77634 5.87011 8.82322 5.82322C8.87011 5.77634 8.9337 5.75 9 5.75ZM9 17.75H11C11.0663 17.75 11.1299 17.7763 11.1768 17.8232C11.2237 17.8701 11.25 17.9337 11.25 18C11.25 18.0663 11.2237 18.1299 11.1768 18.1768C11.1299 18.2237 11.0663 18.25 11 18.25H9C8.93369 18.25 8.87011 18.2237 8.82322 18.1768C8.77634 18.1299 8.75 18.0663 8.75 18C8.75 17.9337 8.77634 17.8701 8.82322 17.8232C8.87011 17.7763 8.9337 17.75 9 17.75ZM9 13.75H15C15.0663 13.75 15.1299 13.7763 15.1768 13.8232C15.2237 13.8701 15.25 13.9337 15.25 14C15.25 14.0663 15.2237 14.1299 15.1768 14.1768C15.1299 14.2237 15.0663 14.25 15 14.25H9C8.9337 14.25 8.87011 14.2237 8.82322 14.1768C8.77634 14.1299 8.75 14.0663 8.75 14C8.75 13.9337 8.77634 13.8701 8.82322 13.8232C8.87011 13.7763 8.9337 13.75 9 13.75ZM9 9.75H15C15.0663 9.75 15.1299 9.77634 15.1768 9.82322C15.2237 9.87011 15.25 9.9337 15.25 10C15.25 10.0663 15.2237 10.1299 15.1768 10.1768C15.1299 10.2237 15.0663 10.25 15 10.25H9C8.9337 10.25 8.87011 10.2237 8.82322 10.1768C8.77634 10.1299 8.75 10.0663 8.75 10C8.75 9.9337 8.77634 9.87011 8.82322 9.82322C8.87011 9.77634 8.9337 9.75 9 9.75Z" fill="#0F172A" stroke="#60A5FA" stroke-width="1.5"/>
</g>
</svg>
