<svg width="32" height="32" viewBox="0 0 32 32" fill="none" xmlns="http://www.w3.org/2000/svg">
<g id="shopping-cart">
<path id="Vector" d="M2.7334 2.7334H5.40007L8.94673 19.2934C9.07684 19.8999 9.41429 20.442 9.90101 20.8265C10.3877 21.2111 10.9933 21.4139 11.6134 21.4001H24.6534C25.2603 21.3991 25.8487 21.1911 26.3214 20.8105C26.7942 20.4299 27.1229 19.8994 27.2534 19.3067L29.4534 9.40007H6.82673M12 28C12 28.7364 11.403 29.3333 10.6667 29.3333C9.93029 29.3333 9.33333 28.7364 9.33333 28C9.33333 27.2636 9.93029 26.6667 10.6667 26.6667C11.403 26.6667 12 27.2636 12 28ZM26.6667 28C26.6667 28.7364 26.0697 29.3333 25.3333 29.3333C24.597 29.3333 24 28.7364 24 28C24 27.2636 24.597 26.6667 25.3333 26.6667C26.0697 26.6667 26.6667 27.2636 26.6667 28Z" stroke="white" stroke-width="3" stroke-linecap="round" stroke-linejoin="round"/>
</g>
</svg>
